<?xml version="1.0" standalone="no"?>
<!DOCTYPE svg PUBLIC "-//W3C//DTD SVG 1.1//EN" "http://www.w3.org/Graphics/SVG/1.1/DTD/svg11.dtd" >
<svg xmlns="http://www.w3.org/2000/svg">
<metadata>Generated by IcoMoon</metadata>
<defs>
<font id="icomoon" horiz-adv-x="1024">
<font-face units-per-em="1024" ascent="960" descent="-64" />
<missing-glyph horiz-adv-x="1024" />
<glyph unicode="&#x20;" horiz-adv-x="512" d="" />
<glyph unicode="&#xe900;" glyph-name="Vector-35" d="M339.645-54.279c-11.802-14.358-37.768-11.486-47.21 0s-11.802 43.073 0 57.43l365.875 445.082-365.875 445.088c-3.934 9.572-11.802 43.069 0 57.432 14.927 18.164 39.341 4.791 47.21 0.005l389.484-473.808c18.884-22.973 7.868-47.859 0-57.432l-389.484-473.797z" />
<glyph unicode="&#xe901;" glyph-name="Frame-248" d="M675.835 832c8.192 8.192 23.895 20.48 30.72 25.6h92.16c5.12 23.894 27.648 71.68 76.8 71.68 30.72 0 87.040-20.48 87.040-76.8 0-30.72-5.12-97.28-81.92-97.28-61.44 0-83.625 44.374-87.040 66.56h-76.8l-56.32-51.2-5.12-40.96v-76.8h56.32c6.825 23.894 32.768 71.68 81.92 71.68 61.44 0 87.040-51.2 87.040-87.040s-20.48-87.040-87.040-87.040c-53.248 0-76.8 44.374-81.92 66.56h-56.32l-61.44-102.4c16.384-8.192 27.305-37.546 30.72-51.2h204.8c0 25.6 30.72 66.56 81.92 71.68s87.040-35.84 87.040-81.92c0-30.72-5.12-81.92-81.92-87.040-61.44-4.096-83.625 42.665-87.040 66.56h-204.8c0-20.48-20.48-42.665-30.72-51.2l56.32-102.4h61.44c5.12 22.185 28.672 66.56 81.92 66.56 66.56 0 87.040-51.2 87.040-81.92s-20.48-87.040-87.040-87.040c-53.248 0-76.8 44.375-81.92 66.56h-51.2v-112.64l56.32-56.32h81.92c0.579 1.505 1.172 3.113 1.797 4.797 8.586 23.204 22.851 61.763 80.123 61.763 56.32 0 81.92-51.2 81.92-81.92s-15.36-81.92-81.92-87.040c-53.248-4.096-76.8 42.665-81.92 66.56h-87.040c-20.48 0-32.425 17.065-35.84 25.6l-35.84-10.24v-87.040c0-24.576-23.895-30.72-35.84-30.72h-138.24c-24.576 0-30.72 20.48-30.72 30.72v87.040c-32.768 0-85.333 27.305-107.52 40.96-8.533-10.24-30.72-35.84-51.2-56.32s-39.253-11.945-46.080-5.12c-29.013 30.72-91.136 95.232-107.52 107.52s-6.826 29.015 0 35.84l61.44 61.44c-28.672 36.864-39.252 87.040-40.959 107.52h-87.040c-28.672 0-32.426 20.48-30.72 30.72v143.36c0 24.576 20.48 30.72 30.72 30.72h87.040c0 45.056 30.72 90.454 46.080 107.52-13.654 11.946-45.058 39.936-61.442 56.32-20.48 16.384-8.534 37.546 0 46.080l102.4 102.4c12.288 12.288 29.013 5.12 35.84 0l66.56-61.44c24.576 20.48 78.506 35.84 102.4 40.96v87.040c0 20.48 20.48 29.013 30.72 30.72h148.481c16.384 0 23.895-20.48 25.6-30.72v-81.92l35.84-15.36zM793.595 688.64c-36.864 0-49.495-34.134-51.2-51.2 0-30.72 20.48-51.2 51.2-51.2s51.2 20.48 51.2 51.2c0 10.24-5.12 51.2-51.2 51.2zM829.435 842.24c0-30.72 20.48-51.2 51.2-51.2 25.6 0 51.2 10.24 51.2 51.2 0 25.6-14.336 51.2-51.2 51.2-40.96 0-51.2-30.72-51.2-51.2zM911.355 499.2c-36.864 0-49.495-29.014-51.2-46.080 0-35.84 25.6-56.32 51.2-56.32 40.96 0 56.32 25.6 56.32 56.32 0 15.36-10.24 46.080-56.32 46.080zM742.395 258.56c0-30.72 25.6-46.080 51.2-46.080s51.2 10.24 51.2 51.2c0 10.24 0 46.080-51.2 46.080-40.96 0-51.2-34.135-51.2-51.2zM880.635 104.96c-35.84 0-51.2-20.48-51.2-51.2 0-20.48 10.24-46.080 51.2-46.080s51.2 15.36 51.2 51.2c0 25.6-10.24 46.080-51.2 46.080z" />
<glyph unicode="&#xe903;" glyph-name="Frame-249" d="M779.469 596.364c0-79.899-32.141-152.334-84.269-205.223-53.53-54.314-128.141-88.013-210.667-88.013s-157.135 33.7-210.666 88.013c-52.127 52.889-84.267 125.324-84.267 205.223 0 161.949 132.046 293.236 294.933 293.236 162.884 0 294.936-131.287 294.936-293.236zM484.533 303.127c-82.526 0-157.135 33.7-210.666 88.013-139.166 0-241.329-130.712-207.711-265.758l39.178-157.382h779.467l35.955 120.358c45.101 150.982-67.981 302.782-225.555 302.782-53.53-54.314-128.141-88.013-210.667-88.013z" />
<glyph unicode="&#xe904;" glyph-name="Frame-246" d="M599.035 765.455h-163.84v-25.6c0 0-5.12-5.12-25.6-5.12s-30.72 5.12-30.72 5.12v25.6h-276.475c-36.864 0-49.494-37.547-51.2-56.32v-61.44c0-53.248 47.786-90.454 71.68-102.4l312.32-81.92c0 20.48 17.066 35.84 25.6 40.96h122.88c32.768 0 37.545-27.307 35.84-40.96 80.215 20.48 248.832 63.488 281.6 71.68 73.728 16.384 98.985 81.92 102.4 112.64v66.56c0 32.768-30.72 47.786-46.080 51.2h-302.085v-25.6c0 0-5.12-5.12-25.6-5.12s-30.72 5.12-30.72 5.12v25.6zM51.2 529.935c8.534-10.24 36.864-33.792 81.92-46.080s223.574-56.32 307.2-76.8v-40.959c1.706-10.24 21.504-33.792 87.040-46.080 30.72 5.12 92.16 22.528 92.16 51.2v35.839l312.32 76.8c22.185 6.826 67.584 25.6 71.68 46.080v-399.359c1.705-22.185-5.12-66.56-46.080-66.56h-855.040c-17.066-1.705-51.2 5.12-51.2 46.080v419.839zM435.195 837.125v-66.56c0 0-5.12-5.12-25.6-5.12s-30.72 5.12-30.72 5.12v81.92c0 40.96 40.96 54.613 61.44 56.32h153.6c49.152 0 61.44-40.96 61.44-61.44v-76.8c0 0-5.12-5.12-25.6-5.12s-30.72 5.12-30.72 5.12v66.56c0 8.192-6.825 13.654-10.24 15.36h-138.24c-12.288 0-15.36-10.24-15.36-15.36z" />
<glyph unicode="&#xe905;" glyph-name="heart" d="M960 584c0-280-415.16-506.642-432.84-516.001-4.659-2.504-9.871-3.82-15.16-3.82-5.292 0-10.5 1.316-15.16 3.82-17.68 9.359-432.84 236.001-432.84 516.001 0.074 65.751 26.226 128.787 72.719 175.281s109.53 72.645 175.281 72.719c82.6 0 154.92-35.52 200-95.56 45.082 60.040 117.402 95.56 199.997 95.56 65.751-0.074 128.788-26.226 175.283-72.719s72.648-109.53 72.719-175.281z" />
<glyph unicode="&#xe906;" glyph-name="Frame-245" d="M1002.447-13.102v266.871c-5.416 86.302-69.901 258.904-284.478 258.904-134.112 0-239.775-91.612-268.223-207.122-28.448-115.513 24.384-227.037 101.602-286.785 77.215-59.748 150.366-55.765 292.605-55.765h138.175c6.769 1.326 20.318 7.966 20.318 23.897zM948.202 253.769l-4.516-241.254h-248.611c-21.094 3.002-75.038 18.022-122.045 54.067-90.406 63.084-85.886 171.229-67.806 238.969 40.68 103.485 103.963 148.545 212.745 157.556 148.496 0 215.363-139.561 230.233-209.338zM686.031 179.232h180.811c7.534-1.504 22.598-9.011 22.598-27.034 0-18.028-15.064-25.535-22.598-27.039h-180.811c-7.534 1.504-22.598 9.011-22.598 27.039 0 18.022 15.064 25.53 22.598 27.034zM799.038 237.811h67.805c7.534 3.002 22.598 12.617 22.598 27.034 0 14.422-15.064 24.032-22.598 27.039h-67.805c-7.534-1.504-22.603-9.017-22.603-27.039s15.069-25.53 22.603-27.034zM32.342 210.863v361.094c7.186 116.772 92.699 350.316 377.263 350.316 177.853 0 317.979-123.958 355.705-280.253s-32.337-307.199-134.737-388.042c-96.206-75.954-187.654-75.792-354.796-75.49-10.761 0.016-21.837 0.038-33.247 0.038h-183.242c-8.983 1.795-26.947 10.779-26.947 32.337zM346.512 530.575c-3.737-10.647-5.605-22.728-5.605-36.242v-22.114h80.339v17.814c0 8.599 1.038 15.766 3.114 21.499 2.491 5.733 7.058 11.671 13.701 17.814s15.985 13.514 28.025 22.114c16.192 11.876 29.686 22.933 40.481 33.171 10.795 10.647 18.891 22.114 24.289 34.399s8.096 26.823 8.096 43.613c0 31.532-12.041 57.536-36.122 78.012-23.666 20.476-57.088 30.714-100.268 30.714-28.233 0-54.182-3.481-77.848-10.443s-45.671-15.971-66.015-27.028l33.007-65.727c17.853 9.009 35.291 16.175 52.314 21.499s34.253 7.986 51.691 7.986c17.438 0 30.932-3.481 40.481-10.443 9.965-6.552 14.947-16.38 14.947-29.485 0-8.6-1.868-16.381-5.605-23.342-3.322-6.962-8.927-13.923-16.815-20.885-7.473-6.962-17.438-14.947-29.893-23.957-14.117-9.828-25.534-19.452-34.253-28.87-8.304-9.419-14.324-19.452-18.061-30.099zM346.512 408.949c-10.38-7.371-15.57-20.476-15.57-39.312 0-18.017 5.19-31.124 15.57-39.316 10.38-7.777 23.043-11.668 37.99-11.668 14.532 0 26.987 3.891 37.367 11.668 10.38 8.192 15.57 21.299 15.57 39.316 0 18.836-5.19 31.941-15.57 39.312-10.38 7.781-22.835 11.671-37.367 11.671-14.947 0-27.61-3.89-37.99-11.671z" />
<glyph unicode="&#xe907;" glyph-name="Frame-247" d="M91.028 72.533c0-103.765 86.947-134.258 130.421-136.533l12.519 7.151c15.87 14.552 21.199 49.556 21.803 67.942v464.213l-27.457 20.48v-436.907c0-27.307 0-68.267-13.728-68.267-60.406-16.384-89.236 36.409-96.1 68.267l6.864 498.347 658.972 382.293-27.46 20.48-665.833-382.293v-505.173zM667.625 748.373l-439.312-252.587 27.457-20.48 439.315 252.587-27.46 20.48zM145.942 536.747l624.652 361.813 12.112-6.023 1.616 0.977v46.006l-658.972-382.293-6.864-498.347c6.864-31.858 35.694-84.651 96.1-68.267-60.406 21.845-70.931 72.818-68.643 95.573v450.56zM736.267 864.427l-68.642-116.053 27.46-20.48 68.642 116.053-27.46 20.48zM223.805-62.652l10.163 5.803c-2.999-2.748-6.373-4.767-10.163-5.803zM921.606 939.52l-27.455 20.48-157.884-95.573 27.46-20.48 157.878 95.573zM921.606 939.52v-566.613c0-9.102-5.49-31.403-27.455-47.787-21.55-16.071-441.184-256.814-660.183-381.969 15.87 14.552 21.199 49.556 21.803 67.942v464.213l439.315 252.587 68.642 116.053 157.878 95.573zM866.691 509.44l-157.878-88.747v34.133l157.878 88.747v-34.133zM708.813 352.427v34.133l157.878 95.573v-34.133l-157.878-95.573zM708.813 325.12v-34.133l157.878 95.573v34.133l-157.878-95.573z" />
<glyph unicode="&#xe908;" glyph-name="Frame-244" d="M568.32 140.8l-568.32 143.36c6.71 10.065 33.204 20.129 52.115 27.313 9.95 3.78 17.8 6.761 19.565 8.527 5.12 25.6-5.12 71.68-10.24 87.040-3.087 9.263-13.999 15.297-25.6 20.48-7.637 3.412-20.48 5.12-20.48 15.36 0 15.36 30.72 20.48 51.2 25.6-81.92 81.92-25.6 189.44 15.36 204.8l573.44 81.92c116.055-34.133 349.184-104.448 353.28-112.64 4.209-8.414 5.622-13.97-15.36-25.6-4.552-2.524-14.090-6.588-20.48-10.24-28.672-16.384-20.48-69.974-15.36-97.28 36.864-8.192 61.44-20.48 66.56-35.84l-51.2-15.36c10.24-5.12 20.48-40.96 20.48-87.040 0-36.864-15.36-81.92-40.96-102.4l-384-128zM460.8 386.56l5.12 122.88-368.64 122.88c-15.36-15.36-25.6-25.6-25.6-71.68 0-35.84 5.12-66.56 51.2-76.8 36.864-8.192 240.64-68.266 337.92-97.28zM486.4 509.44l-5.12-122.88 450.56 112.64-5.12 46.080c0 24.576 10.24 46.080 15.36 56.32l-455.68-92.16zM563.2 197.12l-5.12 122.88 368.64 117.76c11.945-3.414 30.72-21.504 30.72-66.56 0-35.84-5.12-61.44-30.72-71.68-19.389-7.757-250.88-69.975-363.52-102.4zM537.6 320l5.12-122.88-447.414 114.353c1.706 5.12 1.974 19.791 1.974 44.367s-5.12 47.786-10.24 56.32l450.56-92.16z" />
<glyph unicode="&#xe909;" glyph-name="Frame-242" d="M437.029 857.6h368.536c114.58 0 207.468-92.887 207.468-207.468 0-101.811-73.334-186.492-170.066-204.104v-169.339l-181.53 165.975h-197.97c-114.581 0-207.468 92.887-207.468 207.468v26.438c0 99.98 81.050 181.029 181.029 181.029zM205.873 474.45h-17.227c-75.909 0-137.446-61.537-137.446-137.446 0-67.441 48.576-123.54 112.65-135.214v-112.179l120.254 109.947h131.178c75.909 0 137.447 61.537 137.447 137.446v11.704h-172.733c-81.139 0-149.968 52.7-174.124 125.742z" />
<glyph unicode="&#xe90a;" glyph-name="Frame-243" d="M781.474 27.621h-684.463c-73.297 21.558-84.435 80.842-80.842 107.789h652.126c0-86.232 75.453-107.789 113.179-107.789zM199.421 162.358h506.611c-5.389-30.537-1.078-91.621 59.284-91.621 19.763 1.8 59.284 17.246 59.284 64.674v251.598c-25.39-7.51-70.554-18.559-94.165-15.93 10.876-4.844 37.694-14.532 57.991-14.532 7.249 0-54.364-54.494-79.737-65.397-3.686-1.585-7.917-3.552-12.681-5.778-27.988-13.037-74.504-34.714-139.539-37.818-6.042-14.53-18.122-45.778-18.122-54.493 0-8.72-12.082-13.323-18.122-14.535 0 7.265 1.45 25.433 7.249 39.963 7.249 18.168 36.481 85.515 54.601 110.942 1.39 1.951 2.943 4.139 4.64 6.521 20.442 28.759 61.51 86.531 81.591 106.659 21.747 21.798 55.468 51.35 91.621 75.453 10.175 6.785 22.873 14.173 35.387 21.452 10.412 6.058 20.696 12.041 29.286 17.538v18.414c-9.981-4.375-21.881-10.825-32.428-16.542-5.993-3.25-11.555-6.264-16.077-8.525-22.792-11.394-102.4-70.063-147.138-124.826-39.505-48.353-79.732-116.251-97.858-156.22-8.457 12.11-21.746 47.228-7.249 90.827 14.498 43.597 71.277 122.313 97.858 156.221 3.622-13.321 11.598-40.691 14.498-43.597 1.207 23.009 5.799 71.207 14.498 79.927 10.871 10.899 61.612 61.762 65.234 58.129 1.32-1.322 1.682-7.933 2.129-16.16 0.781-14.386 1.827-33.712 8.747-38.335 2.414 25.431 9.421 77.747 18.119 83.561 7.432 4.967 52.127 32.005 79.667 46.296v101.314c0 43.116 43.116 86.232 75.453 86.232h-619.789c-48.505-5.389-80.842-64.674-80.842-107.79l-0.001-603.622zM824.606 749.809h328.753v-549.725h-328.753v549.725zM1023.989 782.15h-172.463c5.389 32.337 32.337 86.232 86.232 86.232 43.116 0 80.842-53.895 86.232-86.232z" />
<glyph unicode="&#xe90b;" glyph-name="Vector-34" horiz-adv-x="870" d="M212.104 477.098h72.507c0 30.883 3.223 95.87 16.113 108.761 4.028 4.028-76.535-16.113-88.62-108.761zM212.104 440.842h72.507c-1.343-17.454 4.028-67.671 20.141-112.783 0-4.029-72.507 12.083-92.647 112.783zM316.836 440.842h68.478c0-40.279-16.113-120.842-36.253-120.842-16.113 0-32.225 80.563-32.225 120.842zM417.54 440.842h72.507c-6.714-33.567-34.642-103.117-92.647-112.783 0 4.024 24.169 44.308 20.141 112.783zM417.54 477.098h72.507c-6.714 30.883-33.837 95.87-88.62 108.761-4.028 0 20.141-64.451 16.113-108.761zM316.836 477.098c1.342 36.254 16.113 120.845 32.225 120.845 15.008 0 36.253-60.422 36.253-120.845h-68.478zM599.762 762.514h-501.030c-40.96-5.852-53.638-43.886-54.857-62.172v-694.859c2.926-35.108 35.352-51.2 51.2-54.856h508.343c40.96 2.929 53.637 37.791 54.856 54.856 1.219 218.209 2.929 664.139 0 702.174-2.924 38.034-40.228 52.419-58.511 54.857zM347.418 634.514c59.733-1.219 179.199-38.034 179.199-175.543 0-127.999-109.078-175.544-171.886-175.544-128 0-179.2 113.372-179.2 175.544 0 117.028 95.086 175.543 171.886 175.543zM464.446 162.744h-226.743c-3.657-1.219-10.972-6.584-10.972-18.289 0-11.699 9.753-14.628 14.629-14.628h223.086c4.876 0 14.628 2.929 14.628 14.628 0 11.704-9.752 17.070-14.628 18.289zM442.504 791.772c-6.095 0-18.286 3.657-18.286 18.286v106.057c1.219 14.629 10.971 43.886 40.228 43.886h62.171c8.535-1.219 28.524-12.434 40.228-47.543 14.628-43.886 58.516-54.857 76.8-54.857 18.289 0 65.828 14.628 80.456 58.514 7.316 25.6 18.289 43.886 43.889 43.886h58.511c12.191-2.438 36.572-15.36 36.572-47.543v-917.941c-2.437-14.633-13.164-43.889-36.572-43.889h-138.967c-4.879 2.437-13.169 10.24-7.316 21.944 7.316 14.628 14.628 29.256 14.628 51.2v669.256c-3.656 31.695-26.332 95.817-87.772 98.743h-164.57zM746.045 513.829v-369.373c1.219-4.874 6.584-14.628 18.289-14.628 11.699 0 17.065 9.754 18.284 14.628v369.373c-1.219 4.876-6.584 14.628-18.284 14.628-11.704 0-17.070-9.753-18.289-14.628zM746.045 645.486v-43.886c1.219-4.876 6.584-14.628 18.289-14.628 11.699 0 14.628 9.752 14.628 14.628v43.886c0 4.876-2.929 14.629-14.628 14.629-11.704 0-17.070-9.753-18.289-14.629z" />
<glyph unicode="&#xe90c;" glyph-name="Frame-241" d="M537.149 781.969h-84.551v-676.425h89.42l-4.869 676.425zM542.126 90.624h-198.949c-49.444 0-89.527-40.084-89.527-89.528h492.396c0 49.444-40.079 89.528-89.523 89.528h-114.396zM969.876 851.6h-940.034c-16.481 0-29.842-13.361-29.842-29.842s13.361-29.842 29.842-29.842h940.034c16.481 0 29.839 13.361 29.839 29.842s-13.358 29.842-29.839 29.842zM74.613 369.152l99.474 412.817h24.868l-104.448-412.817h223.817l-104.448 412.817h19.895l104.448-412.817c21.247 0 38.059-18.632 31.445-38.825-17.68-53.975-63.715-110.387-165.735-110.387-98.913 0-147.199 53.028-165.379 105.452-7.969 22.979 11.741 43.761 36.063 43.761zM691.338 369.152l99.476 412.817h24.868l-104.448-412.817h223.816l-104.448 412.817h19.896l104.448-412.817c21.248 0 38.057-18.632 31.442-38.825-17.679-53.975-63.713-110.387-165.734-110.387-98.913 0-147.2 53.028-165.376 105.452-7.972 22.979 11.74 43.761 36.060 43.761zM537.149 861.546h-89.524v14.921c0 24.722 20.041 44.764 44.763 44.764s44.761-20.041 44.761-44.764v-14.921z" />
<glyph unicode="&#xe90d;" glyph-name="Frame-285" d="M373.040 674.742c-29.358-32.62-81.676-59.734-109.714-73.143 71.924-71.924 216.503-215.771 219.429-215.771 0 18.284 32.916 73.143 62.172 102.4 25.252 25.253 84.111 60.952 113.372 73.143l-219.43 219.428c-8.534-17.066-32.914-69.486-65.829-106.057zM702.182 579.656l-248.685 248.686c-20.48 20.48-3.657 42.666 7.314 51.199l65.826 65.829c17.556 17.554 41.452 4.876 51.2-3.657l245.033-245.028c20.48-20.48 6.093-45.105-3.661-54.857-14.628-15.848-48.271-51.2-65.828-65.829-17.551-14.628-41.446-3.657-51.2 3.657zM460.812 345.6l-241.372 241.371c-23.405 17.554-48.762 4.876-58.515-3.657l-62.171-62.172c-20.48-20.48-8.534-45.105 0-54.857l245.028-245.029c20.48-20.48 45.105-8.535 54.857 0l62.172 62.172c23.406 23.404 9.752 51.2 0 62.172zM577.838 462.628c-26.66-26.66-37.791-52.419-47.539-69.484l347.428-347.433c20.48-20.48 47.539-8.53 58.511 0l62.172 62.172c23.409 23.409 4.874 51.2-7.311 62.172l-340.116 343.772c-18.284-10.972-51.2-29.257-73.144-51.2zM512.010 74.972h-420.571v47.539c0 29.261 21.943 39.009 32.914 40.233h354.743c23.406 0 31.695-21.944 32.914-32.916v-54.856zM596.127 38.4h-588.802v-87.772h588.802v87.772z" />
<glyph unicode="&#xe90e;" glyph-name="Frame-284" d="M384 945.336c-73.201 0-132.876-30.55-153.6-47.658 0 40.324-18.286 62.323-54.857 62.323-29.257 0-43.886-26.884-47.543-40.326v-934.826c3.657-12.216 18.286-36.659 47.543-36.659s48.762 29.327 54.857 43.991v443.587c69.486 54.988 179.2 69.652 266.972 21.994 87.773-47.656 106.056-98.984 219.428-102.65 90.696-2.929 147.507 37.883 164.572 58.66v406.922c0 6.11-5.12 19.063-25.6 21.996-25.6 3.666-25.6-29.328-142.628-32.994s-190.172 135.639-329.144 135.639z" />
<glyph unicode="&#xe90f;" glyph-name="Frame-283" d="M171.878 818.142h676.572c4.874 0 14.628-2.91 14.628-14.55v-418.302c0-4.849-2.924-14.546-14.628-14.546h-168.986c4.541 5.396 8.069 11.090 8.069 18.186 0 13.686-10.506 27.377-19.482 39.071-2.77 3.615-5.396 7.035-7.521 10.209-4.506 6.717-3.379 16.798-2.253 26.878s2.253 20.16-2.253 26.88c-6.866 10.258-26.849 15.296-41.928 19.099-4.68 1.18-8.888 2.241-12.083 3.301-6.753 2.24-12.38 12.32-18.002 22.399-5.627 10.080-11.254 20.16-18.007 22.4-7.26 2.409-17.126-1.659-27.494-5.935-8.914-3.676-18.196-7.505-26.519-7.505-8.002 0-16.004 3.54-24.006 7.079-10.002 4.425-20.005 8.849-30.007 6.361-10.28-2.558-16.158-13.879-21.823-24.791-4.257-8.198-8.393-16.165-14.186-20.009-6.752-4.48-15.754-6.72-24.756-8.96s-18.004-4.48-24.756-8.96c-8.477-5.624-8.085-21.84-7.732-36.458 0.209-8.67 0.405-16.777-1.271-21.779-1.381-4.127-4.986-8.786-9.129-14.136-7.949-10.271-17.877-23.096-17.877-39.624 0-5.171 1.5-9.6 3.85-13.706h-168.421c-4.876 0-14.628 2.908-14.628 14.546v421.94c0 3.637 2.926 10.912 14.628 10.912zM727.762 752.669h-435.197c-3.657-1.212-10.972-5.82-10.972-14.55s7.314-13.337 10.972-14.55h435.197c4.879 1.213 14.633 5.82 14.633 14.55s-9.754 13.337-14.633 14.55zM296.221 650.822h431.541c4.879 0 14.633-2.91 14.633-14.55s-9.754-14.55-14.633-14.55h-431.541c-4.876 0-14.628 2.91-14.628 14.55s9.753 14.55 14.628 14.55zM377.223 363.075c-6.006 6.856-11.508 13.133-11.508 22.139 0 13.716 8.274 24.356 14.898 32.881 3.452 4.439 6.457 8.305 7.608 11.725 1.396 4.152 1.233 10.88 1.059 18.074-0.294 12.132-0.621 25.588 6.443 30.255 5.626 3.718 13.128 5.576 20.63 7.435s15.004 3.718 20.63 7.435c4.828 3.19 8.274 9.801 11.822 16.604 4.721 9.054 9.619 18.448 18.186 20.571 8.335 2.065 16.671-1.606 25.006-5.278 6.668-2.937 13.337-5.875 20.004-5.875 6.938 0 14.674 3.177 22.098 6.227 8.643 3.548 16.86 6.924 22.912 4.925 5.627-1.859 10.317-10.223 15.007-18.587 4.685-8.364 9.375-16.728 15.002-18.587 2.668-0.88 6.17-1.76 10.071-2.739 12.564-3.155 29.215-7.336 34.939-15.848 3.753-5.576 2.816-13.94 1.879-22.304s-1.879-16.731 1.874-22.306c1.772-2.632 3.958-5.473 6.272-8.468 7.475-9.702 16.236-21.064 16.236-32.42 0-8.023-5.458-13.88-11.075-19.907-4.792-5.151-9.708-10.419-11.433-17.27-1.352-5.35-0.758-12.145-0.143-19.174 1.091-12.498 2.248-25.728-7.357-32.87-8.346-6.2-16.686-7.803-24.381-9.283-6.149-1.183-11.884-2.284-16.881-5.586-4.47-2.954-7.168-9.431-9.969-16.169-4.244-10.209-8.74-21.007-20.040-21.007-9.375 0-15.939 2.79-22.502 5.581-6.564 2.785-13.128 5.576-22.508 5.576-8.693 0-14.162-3.195-19.397-6.257-6.058-3.538-11.801-6.892-21.862-4.9-10.809 2.145-17.881 12.933-24.087 22.4-4.561 6.958-8.655 13.199-13.423 14.776-2.367 0.783-5.232 1.567-8.35 2.417-11.706 3.195-26.986 7.363-32.91 16.169-3.705 5.509-2.835 12.831-1.91 20.623 0.949 7.982 1.956 16.461-1.841 23.987-2.959 5.868-7.086 10.573-10.998 15.037zM512 439.854c-40.228 0-54.857-34.391-54.857-54.564 0-20.168 18.849-54.559 54.857-54.559s54.856 29.097 54.856 54.559-16.927 54.564-54.856 54.564zM398.629 265.257c5.533 1.014 18.398 0.978 25.6-7.276 9.002-10.317 12.003-29.097 29.257-32.737 13.803-2.908 27.694-3.635 32.914-3.635l-43.886-101.847c-2.438-7.276-10.24-21.827-21.943-21.827s-14.629 33.951-14.629 50.924c-1.219 1.213-4.388 2.913-7.314 0-3.657-3.635-32.914-36.372-47.543-21.821-8.777 8.73-1.219 27.884 3.657 36.372l43.886 101.847zM537.6 221.609c7.316-1.213 24.136-2.181 32.916 3.635 10.967 7.276 29.256 32.737 36.567 36.378 5.852 2.908 14.633 3.635 18.289 3.635l51.2-120.033c1.219-10.911-1.464-30.556-21.944-21.827-10.972 3.64-29.256 29.102-32.911 25.462-3.661-3.635 3.656-50.924-14.633-50.924-18.284 0-18.284 7.276-25.6 21.827-5.847 11.638-31.693 72.75-43.884 101.847z" />
<glyph unicode="&#xe910;" glyph-name="Frame-282" d="M709.478 800.464h-373.028c93.866 35.865 293.305 111.304 325.484 111.304 32.184 0 47.544-18.551 47.544-33.391v-77.913zM270.621 770.783h526.629c18.284 0 36.572-16.325 36.572-37.102v-730.896c-3.661-9.897-15.36-30.423-32.916-33.393h-533.942c-10.972 3.707-32.914 16.323-32.914 37.1v727.19c0 11.13 18.286 37.102 36.571 37.102zM676.562 136.351c0 11.868-12.186 14.838-18.284 14.838h-248.686c-4.876 0-14.628-2.97-14.628-14.838 0-11.873 9.752-14.843 14.628-14.843h248.686c6.098 0 18.284 2.97 18.284 14.843zM475.421 199.419h120.685c4.879-1.234 14.628-5.934 14.628-14.838s-9.748-13.604-14.628-14.843h-120.685c-4.876 1.239-14.628 5.939-14.628 14.843s9.753 13.604 14.628 14.838zM691.195 455.421c0 127.629-104.842 159.536-157.261 159.536-87.77 0-153.598-70.493-153.598-159.536s69.486-159.536 153.598-159.536c54.861 0 157.261 40.812 157.261 159.536zM409.593 473.972h65.828c0 28.444 2.926 88.302 14.629 100.174 3.657 3.71-69.486-14.841-80.457-100.174zM504.678 473.972c1.219 33.391 14.628 111.304 29.256 111.304 13.629 0 32.916-55.652 32.916-111.304h-62.172zM596.106 473.972h65.828c-6.093 28.444-30.72 88.302-80.456 100.174-3.656 0 18.284-59.362 14.628-100.174zM409.593 440.581h65.828c-1.219-16.077 3.657-62.331 18.286-103.885 0-3.712-65.829 11.131-84.114 103.885zM596.106 440.581h65.828c-6.093-30.92-31.452-94.981-84.111-103.885 0 3.712 21.939 40.812 18.284 103.885zM504.678 440.581h62.172c0-37.105-14.628-111.304-32.916-111.304-14.628 0-29.256 74.199-29.256 111.304z" />
<glyph unicode="&#xe911;" glyph-name="angle-left-solid" horiz-adv-x="640" d="M82.8 493.2c-25-25-25-65.6 0-90.6l320-320c25-25 65.6-25 90.6 0s25 65.6 0 90.6l-274.8 274.8 274.6 274.8c25 25 25 65.6 0 90.6s-65.6 25-90.6 0l-320-320z" />
<glyph unicode="&#xe912;" glyph-name="angle-right-solid" horiz-adv-x="640" d="M557.2 493.2c25-25 25-65.6 0-90.6l-320-320c-25-25-65.6-25-90.6 0s-25 65.6 0 90.6l274.8 274.8-274.6 274.8c-25 25-25 65.6 0 90.6s65.6 25 90.6 0l320-320z" />
<glyph unicode="&#xe913;" glyph-name="Frame-2821" d="M709.478 800.464h-373.028c93.866 35.865 293.305 111.304 325.484 111.304 32.184 0 47.544-18.551 47.544-33.391v-77.913zM270.621 770.783h526.629c18.284 0 36.572-16.325 36.572-37.102v-730.896c-3.661-9.897-15.36-30.423-32.916-33.393h-533.942c-10.972 3.707-32.914 16.323-32.914 37.1v727.19c0 11.13 18.286 37.102 36.571 37.102zM676.562 136.351c0 11.868-12.186 14.838-18.284 14.838h-248.686c-4.876 0-14.628-2.97-14.628-14.838 0-11.873 9.752-14.843 14.628-14.843h248.686c6.098 0 18.284 2.97 18.284 14.843zM475.421 199.419h120.685c4.879-1.234 14.628-5.934 14.628-14.838s-9.748-13.604-14.628-14.843h-120.685c-4.876 1.239-14.628 5.939-14.628 14.843s9.753 13.604 14.628 14.838zM691.195 455.421c0 127.629-104.842 159.536-157.261 159.536-87.77 0-153.598-70.493-153.598-159.536s69.486-159.536 153.598-159.536c54.861 0 157.261 40.812 157.261 159.536zM409.593 473.972h65.828c0 28.444 2.926 88.302 14.629 100.174 3.657 3.71-69.486-14.841-80.457-100.174zM504.678 473.972c1.219 33.391 14.628 111.304 29.256 111.304 13.629 0 32.916-55.652 32.916-111.304h-62.172zM596.106 473.972h65.828c-6.093 28.444-30.72 88.302-80.456 100.174-3.656 0 18.284-59.362 14.628-100.174zM409.593 440.581h65.828c-1.219-16.077 3.657-62.331 18.286-103.885 0-3.712-65.829 11.131-84.114 103.885zM596.106 440.581h65.828c-6.093-30.92-31.452-94.981-84.111-103.885 0 3.712 21.939 40.812 18.284 103.885zM504.678 440.581h62.172c0-37.105-14.628-111.304-32.916-111.304-14.628 0-29.256 74.199-29.256 111.304z" />
<glyph unicode="&#xe914;" glyph-name="Vector-1" horiz-adv-x="970" d="M970.105 209.785v-190.572c0.005-13.646-5.163-26.786-14.465-36.767s-22.043-16.066-35.657-17.020c-23.552-1.617-42.792-2.479-57.667-2.479-476.268 0-862.316 386.048-862.316 862.316 0 14.875 0.808 34.115 2.479 57.667 0.955 13.612 7.038 26.354 17.020 35.656s23.122 14.472 36.767 14.466h190.572c6.685 0.007 13.134-2.472 18.094-6.953s8.077-10.648 8.745-17.299c1.24-12.396 2.371-22.259 3.449-29.75 10.711-74.748 32.66-147.447 65.105-215.633 5.12-10.779 1.779-23.66-7.923-30.558l-116.305-83.106c71.111-165.699 203.159-297.741 368.856-368.856l82.998 116.089c3.39 4.743 8.343 8.143 13.986 9.609 5.643 1.471 11.625 0.911 16.896-1.579 68.177-32.385 140.859-54.283 215.579-64.943 7.491-1.078 17.354-2.21 29.642-3.449 6.64-0.679 12.795-3.805 17.268-8.763 4.468-4.958 6.888-11.399 6.877-18.076z" />
<glyph unicode="&#xe915;" glyph-name="Vector" horiz-adv-x="1186" d="M0 656.896l574.195-298.631c5.761-2.997 12.153-4.559 18.648-4.559s12.886 1.563 18.648 4.559l574.195 298.577v-518.737c0.005-44.738-17.117-87.784-47.842-120.304s-72.731-52.052-117.399-54.585l-9.917-0.269h-835.368c-44.74-0.005-87.785 17.117-120.305 47.842s-52.050 72.731-54.583 117.399l-0.269 9.917v518.791zM175.158 933.053h835.368c44.738 0.003 87.784-17.114 120.304-47.841s52.052-72.732 54.585-117.401l0.269-9.917v-9.917l-592.842-308.278-592.842 308.278v9.917c-0.003 44.74 17.114 87.785 47.841 120.305s72.732 52.050 117.4 54.583l9.917 0.269z" />
<glyph unicode="&#xe916;" glyph-name="Arrow-4-3" horiz-adv-x="2560" d="M2477.261 402.744c24.986 24.995 24.986 65.517 0 90.51l-407.296 407.294c-24.998 24.994-65.523 24.994-90.509 0-24.998-24.994-24.998-65.516 0-90.51l362.035-362.038-362.035-362.039c-24.998-24.993-24.998-65.516 0-90.51 24.986-24.993 65.51-24.993 90.509 0l407.296 407.293zM0 384h2432v128h-2432v-128z" />
<glyph unicode="&#xe917;" glyph-name="Arrow-4-2" horiz-adv-x="2560" d="M82.745 493.256c-24.993-24.995-24.993-65.517 0-90.51l407.294-407.293c24.993-24.993 65.516-24.993 90.509 0 24.995 24.993 24.995 65.516 0 90.509l-362.038 362.039 362.038 362.039c24.995 24.993 24.995 65.516 0 90.509-24.993 24.994-65.516 24.994-90.509 0l-407.294-407.293zM2560 512h-2432v-128h2432v128z" />
<glyph unicode="&#xe918;" glyph-name="arrow-right-solid" horiz-adv-x="896" d="M877.2 402.8c25 25 25 65.6 0 90.6l-320 320c-25 25-65.6 25-90.6 0s-25-65.6 0-90.6l211-210.8h-613.6c-35.4 0-64-28.6-64-64s28.6-64 64-64h613.4l-210.6-210.8c-25-25-25-65.6 0-90.6s65.6-25 90.6 0l320 320z" />
<glyph unicode="&#xe919;" glyph-name="angle-down-solid" horiz-adv-x="896" d="M402.8 274.8c25-25 65.6-25 90.6 0l320 320c25 25 25 65.6 0 90.6s-65.6 25-90.6 0l-274.8-274.8-274.8 274.6c-25 25-65.6 25-90.6 0s-25-65.6 0-90.6l320-320z" />
<glyph unicode="&#xe91a;" glyph-name="arrow-left-solid" horiz-adv-x="896" d="M18.8 493.2c-25-25-25-65.6 0-90.6l320-320c25-25 65.6-25 90.6 0s25 65.6 0 90.6l-211 210.8h613.6c35.4 0 64 28.6 64 64s-28.6 64-64 64h-613.4l210.6 210.8c25 25 25 65.6 0 90.6s-65.6 25-90.6 0l-320-320z" />
<glyph unicode="&#xe91b;" glyph-name="Star-1" horiz-adv-x="1123" d="M561.548 960l126.074-388.020h407.991l-330.072-239.811 126.074-388.020-330.068 239.811-330.070-239.811 126.076 388.020-330.070 239.811h407.99l126.074 388.020z" />
<glyph unicode="&#xe91c;" glyph-name="check-solid" horiz-adv-x="896" d="M877.2 749.2c25-25 25-65.6 0-90.6l-512-512c-25-25-65.6-25-90.6 0l-256 256c-25 25-25 65.6 0 90.6s65.6 25 90.6 0l210.8-210.6 466.8 466.6c25 25 65.6 25 90.6 0z" />
<glyph unicode="&#xe91d;" glyph-name="cib_pinterest" d="M512.674 960c-282.495 0-511.487-228.992-511.487-511.488 0-216.67 134.848-401.664 325.152-476.16-4.512 40.512-8.512 102.494 1.664 146.654 9.344 40 60 254.178 60 254.178s-15.328 30.848-15.328 76.002c0 71.006 41.344 124.158 92.511 124.158 43.682 0 64.832-32.672 64.832-72.002 0-43.84-27.84-109.5-42.334-170.334-12.16-50.85 25.502-92.322 75.678-92.322 90.85 0 160.832 95.842 160.832 234.18 0 122.014-88 207.678-213.662 207.678-145.505 0-230.849-109.344-230.849-221.822 0-44.002 16.832-91.328 38.016-116.834 4.16-5.15 4.672-9.664 3.488-14.848-3.84-16-12.512-51.17-14.176-58.176-2.336-9.502-7.328-11.486-17.152-7.006-63.68 29.504-103.84 122.846-103.84 198.174 0 161.152 117.344 309.504 338.017 309.504 177.344 0 315.328-126.656 315.328-295.326 0-176.512-111.168-318.498-265.826-318.498-51.84 0-100.51 26.846-117.662 58.846l-32.001-121.502c-11.488-44.51-42.848-100.318-64-134.174 48-14.656 98.497-22.852 151.489-22.852 282.014 0 511.326 228.834 511.326 511.492 0 282.494-229.342 511.326-511.326 511.326l1.31 1.152z" />
<glyph unicode="&#xe91e;" glyph-name="ri_instagram-fill" d="M555.866 874.624c31.134 0.119 62.272-0.193 93.397-0.939l8.277-0.299c9.557-0.341 18.987-0.768 30.379-1.28 45.397-2.133 76.373-9.301 103.552-19.84 28.16-10.837 51.883-25.515 75.605-49.237 21.692-21.316 38.477-47.101 49.195-75.563 10.539-27.179 17.707-58.197 19.84-103.595 0.512-11.349 0.939-20.821 1.28-30.379l0.256-8.277c0.759-31.112 1.084-62.234 0.981-93.355l0.043-31.829v-55.893c0.107-31.134-0.222-62.272-0.981-93.397l-0.256-8.277c-0.341-9.557-0.768-18.987-1.28-30.379-2.133-45.397-9.387-76.373-19.883-103.552-10.684-28.489-27.473-54.298-49.195-75.605-21.333-21.687-47.134-38.473-75.605-49.195-27.179-10.539-58.155-17.707-103.552-19.84-11.392-0.512-20.821-0.939-30.379-1.28l-8.277-0.256c-31.125-0.759-62.263-1.084-93.397-0.981l-87.68-0.043c-31.134-0.107-62.272 0.222-93.398 0.981l-8.277 0.256c-10.129 0.367-20.255 0.794-30.379 1.28-45.397 2.133-76.373 9.387-103.595 19.883-28.472 10.697-54.262 27.486-75.563 49.195-21.716 21.321-38.519 47.125-49.237 75.605-10.539 27.179-17.707 58.155-19.84 103.552-0.475 10.125-0.902 20.25-1.28 30.379l-0.213 8.277c-0.787 31.125-1.142 62.263-1.067 93.397v87.723c-0.119 31.121 0.194 62.243 0.939 93.355l0.299 8.277c0.341 9.557 0.768 19.029 1.28 30.379 2.133 45.44 9.301 76.373 19.84 103.595 10.725 28.475 27.561 54.253 49.323 75.52 21.286 21.728 47.060 38.546 75.52 49.28 27.221 10.539 58.155 17.707 103.595 19.84l30.379 1.28 8.277 0.213c31.112 0.786 62.234 1.142 93.355 1.067l87.723-0.043zM512.004 661.291c-28.267 0.4-56.333-4.822-82.56-15.363-26.232-10.541-50.106-26.189-70.237-46.037s-36.115-43.498-47.025-69.575c-10.911-26.082-16.529-54.067-16.529-82.338 0-28.267 5.618-56.256 16.529-82.334s26.895-49.732 47.025-69.577c20.131-19.849 44.005-35.499 70.237-46.037 26.227-10.543 54.293-15.765 82.56-15.364 56.58 0 110.839 22.477 150.848 62.485s62.485 94.268 62.485 150.848c0 56.58-22.477 110.842-62.485 150.85s-94.268 62.441-150.848 62.441zM512.004 575.958c17.003 0.314 33.899-2.764 49.698-9.054s30.187-15.665 42.325-27.577c12.134-11.911 21.777-26.124 28.356-41.804 6.583-15.68 9.975-32.516 9.98-49.523 0-17.007-3.383-33.839-9.963-49.523-6.575-15.684-16.213-29.897-28.343-41.813-12.134-11.917-26.517-21.299-42.317-27.593s-32.691-9.378-49.694-9.071c-33.95 0-66.505 13.487-90.51 37.491s-37.49 56.563-37.49 90.509c0 33.95 13.486 66.505 37.49 90.51s56.56 37.49 90.51 37.49l-0.043-0.043zM736.004 725.291c-13.764-0.551-26.782-6.406-36.326-16.34s-14.874-23.175-14.874-36.951c0-13.775 5.329-27.017 14.874-36.95s22.562-15.789 36.326-16.34c14.144 0 27.712 5.619 37.713 15.621s15.62 23.567 15.62 37.712c0 14.145-5.619 27.711-15.62 37.713s-23.569 15.621-37.713 15.621v-0.085z" />
<glyph unicode="&#xe91f;" glyph-name="mdi_facebook" d="M512 872.96c-234.667 0-426.667-191.573-426.667-427.52 0-213.333 156.16-390.4 360.107-422.4v298.667h-108.373v123.733h108.373v94.293c0 107.093 63.573 165.973 161.28 165.973 46.507 0 95.147-8.107 95.147-8.107v-105.387h-53.76c-52.907 0-69.547-32.853-69.547-66.56v-80.213h118.613l-19.2-123.733h-99.413v-298.667c100.54 15.876 192.094 67.179 258.129 144.636 66.035 77.461 102.208 175.974 101.978 277.764 0 235.946-192 427.52-426.667 427.52z" />
<glyph unicode="&#xe920;" glyph-name="bi_youtube" d="M515.264 832.064h5.696c52.608-0.192 319.168-2.112 391.040-21.44 21.726-5.899 41.527-17.397 57.417-33.345 15.893-15.948 27.319-35.787 33.143-57.535 6.464-24.32 11.008-56.512 14.080-89.728l0.64-6.656 1.408-16.64 0.512-6.656c4.16-58.496 4.672-113.28 4.736-125.248v-4.8c-0.064-12.416-0.64-70.912-5.248-131.84l-0.512-6.72-0.576-6.656c-3.2-36.608-7.936-72.96-15.040-99.712-5.803-21.756-17.225-41.604-33.122-57.557-15.893-15.949-35.703-27.443-57.438-33.323-74.24-19.968-356.416-21.376-395.52-21.44h-9.088c-19.776 0-101.568 0.384-187.328 3.328l-10.88 0.384-5.568 0.256-21.888 0.896c-71.040 3.136-138.688 8.192-169.856 16.64-21.729 5.875-41.532 17.357-57.425 33.297-15.894 15.936-27.32 35.772-33.135 57.519-7.104 26.688-11.84 63.104-15.040 99.712l-0.512 6.72-0.512 6.656c-3.159 43.366-4.909 86.822-5.248 130.304v7.872c0.128 13.76 0.64 61.312 4.096 113.792l0.448 6.592 0.192 3.328 0.512 6.656 1.408 16.64 0.64 6.656c3.072 33.216 7.616 65.472 14.080 89.728 5.804 21.757 17.226 41.606 33.121 57.556s35.703 27.443 57.439 33.324c31.168 8.32 98.816 13.44 169.856 16.64l10.88 0.448 16.512 0.576 10.944 0.448c60.909 1.96 121.843 3.048 182.784 3.264h12.352v0.064zM409.6 626.624v-308.352l266.048 154.112-266.048 154.24z" />
<glyph unicode="&#xe921;" glyph-name="uiw_twitter" d="M1024 760.627c-38.4-16.744-79.066-27.717-120.678-32.563 43.686 25.61 76.527 66.281 92.365 114.381-41.318-24.115-86.409-41.079-133.376-50.176-19.802 20.711-43.601 37.181-69.965 48.412-26.359 11.231-54.724 16.987-83.379 16.919-116.019 0-210.074-92.57-210.074-206.848 0-16.179 1.843-31.949 5.427-47.104-83.225 3.951-164.713 25.205-239.266 62.406s-140.533 89.533-193.732 153.658c-18.658-31.457-28.492-67.362-28.467-103.936 0.055-34.2 8.632-67.848 24.955-97.902s39.878-55.567 68.536-74.232c-33.318 1.021-65.926 9.879-95.181 25.856v-2.56c0-100.198 72.397-183.808 168.448-202.803-30.944-8.26-63.344-9.485-94.822-3.584 26.726-82.125 104.294-141.926 196.25-143.616-74.752-57.626-166.531-88.781-260.915-88.576-16.752 0.013-33.488 1.007-50.125 2.97 96.375-60.868 208.062-93.094 322.048-92.928 386.406 0 597.709 315.136 597.709 588.39 0 8.96-0.205 17.92-0.614 26.778 41.050 29.135 76.561 65.426 104.858 107.059z" />
<glyph unicode="&#xe922;" glyph-name="Arrow-3" d="M968.841 417.83c16.657 16.662 16.657 43.677 0 60.339l-271.533 271.529c-16.662 16.662-43.677 16.662-60.339 0s-16.663-43.677 0-60.339l241.359-241.359-241.359-241.359c-16.663-16.662-16.663-43.677 0-60.339s43.677-16.663 60.339 0l271.533 271.529zM0 405.333h938.667v85.333h-938.667v-85.333z" />
<glyph unicode="&#xe923;" glyph-name="Arrow-4" d="M990.904 429.898c9.994 9.998 9.994 26.207 0 36.204l-162.918 162.917c-9.999 9.997-26.209 9.997-36.204 0-9.999-9.997-9.999-26.206 0-36.204l144.814-144.815-144.814-144.816c-9.999-9.997-9.999-26.206 0-36.204 9.994-9.997 26.204-9.997 36.204 0l162.918 162.917zM0 422.4h972.8v51.2h-972.8v-51.2z" />
<glyph unicode="&#xe924;" glyph-name="iconamoon_news-fill" d="M767.998 789.333c0 11.316-4.495 22.169-12.496 30.17-8.002 8.002-18.855 12.497-30.171 12.497h-597.333c-11.316 0-22.168-4.495-30.17-12.497s-12.497-18.854-12.497-30.17v-597.333c0-33.948 13.486-66.505 37.49-90.509s56.563-37.491 90.51-37.491h597.333c33.948 0 66.505 13.486 90.509 37.491s37.491 56.561 37.491 90.509v426.667c0 11.316-4.495 22.167-12.497 30.17-8.001 8.001-18.854 12.496-30.17 12.496h-128v128zM853.331 192c0-11.316-4.495-22.169-12.496-30.17s-18.854-12.497-30.17-12.497c-11.316 0-22.169 4.496-30.17 12.497s-12.497 18.854-12.497 30.17v384h85.333v-384zM255.998 618.667c0 11.316 4.495 22.167 12.497 30.17 8.001 8.001 18.854 12.496 30.17 12.496h256c11.316 0 22.169-4.495 30.17-12.496s12.497-18.854 12.497-30.17-4.496-22.169-12.497-30.17c-8.001-8.002-18.854-12.497-30.17-12.497h-256c-11.316 0-22.169 4.495-30.17 12.497-8.002 8.001-12.497 18.854-12.497 30.17zM341.333 448c0 11.316 4.495 22.169 12.496 30.17s18.854 12.497 30.17 12.497h170.667c11.316 0 22.169-4.496 30.17-12.497s12.497-18.854 12.497-30.17c0-11.316-4.496-22.169-12.497-30.17s-18.854-12.497-30.17-12.497h-170.667c-11.316 0-22.169 4.496-30.17 12.497s-12.496 18.854-12.496 30.17z" />
<glyph unicode="&#xe925;" glyph-name="ri_search-line" d="M769.321 251.009l182.741-182.701-60.373-60.373-182.701 182.741c-67.977-54.493-152.533-84.133-239.656-84.008-211.97 0-384.002 172.032-384.002 384s172.032 383.999 384.002 383.999c211.968 0 384-172.032 384-383.999 0.122-87.126-29.518-171.682-84.011-239.659zM683.731 282.667c54.146 55.686 84.388 130.329 84.265 208.001 0 164.991-133.675 298.665-298.664 298.665-164.993 0-298.668-133.675-298.668-298.665 0-164.993 133.675-298.668 298.668-298.668 77.669-0.122 152.315 30.119 207.998 84.265l6.402 6.402z" />
<glyph unicode="&#xe926;" glyph-name="fa-solid_fax" d="M960 640v165.5c0 8.406-1.66 16.73-4.877 24.496-3.221 7.766-7.936 14.821-13.884 20.764l-90.5 90.5c-11.998 11.997-28.271 18.737-45.239 18.74h-485.5c-16.974 0-33.253-6.743-45.255-18.745s-18.745-28.281-18.745-45.255v-896c0-16.973 6.743-33.254 18.745-45.257s28.281-18.743 45.255-18.743h640c16.973 0 33.254 6.741 45.257 18.743s18.743 28.284 18.743 45.257v576c0 16.974-6.741 33.253-18.743 45.255s-28.284 18.745-45.257 18.745zM576 96c0-8.486-3.371-16.627-9.374-22.626-5.999-6.003-14.14-9.374-22.626-9.374h-64c-8.486 0-16.627 3.371-22.626 9.374-6.003 5.999-9.374 14.14-9.374 22.626v64c0 8.486 3.371 16.627 9.374 22.626 5.999 6.003 14.14 9.374 22.626 9.374h64c8.486 0 16.627-3.371 22.626-9.374 6.003-5.999 9.374-14.14 9.374-22.626v-64zM576 352c0-8.486-3.371-16.627-9.374-22.626-5.999-6.003-14.14-9.374-22.626-9.374h-64c-8.486 0-16.627 3.371-22.626 9.374-6.003 5.999-9.374 14.14-9.374 22.626v64c0 8.486 3.371 16.627 9.374 22.626 5.999 6.003 14.14 9.374 22.626 9.374h64c8.486 0 16.627-3.371 22.626-9.374 6.003-5.999 9.374-14.14 9.374-22.626v-64zM832 96c0-8.486-3.371-16.627-9.374-22.626-5.999-6.003-14.14-9.374-22.626-9.374h-64c-8.486 0-16.627 3.371-22.626 9.374-6.003 5.999-9.374 14.14-9.374 22.626v64c0 8.486 3.371 16.627 9.374 22.626 5.999 6.003 14.14 9.374 22.626 9.374h64c8.486 0 16.627-3.371 22.626-9.374 6.003-5.999 9.374-14.14 9.374-22.626v-64zM832 352c0-8.486-3.371-16.627-9.374-22.626-5.999-6.003-14.14-9.374-22.626-9.374h-64c-8.486 0-16.627 3.371-22.626 9.374-6.003 5.999-9.374 14.14-9.374 22.626v64c0 8.486 3.371 16.627 9.374 22.626 5.999 6.003 14.14 9.374 22.626 9.374h64c8.486 0 16.627-3.371 22.626-9.374 6.003-5.999 9.374-14.14 9.374-22.626v-64zM832 576h-448v256h320v-96c0-8.487 3.371-16.626 9.374-22.627 5.999-6.001 14.14-9.373 22.626-9.373h96v-128zM128 704h-64c-16.974 0-33.253-6.743-45.255-18.745s-18.745-28.281-18.745-45.255v-640c0-16.973 6.743-33.254 18.745-45.257s28.281-18.743 45.255-18.743h64c16.974 0 33.253 6.741 45.255 18.743s18.745 28.284 18.745 45.257v640c0 16.974-6.743 33.253-18.745 45.255s-28.281 18.745-45.255 18.745z" />
<glyph unicode="&#xe927;" glyph-name="Ellipse-1" horiz-adv-x="910" d="M910.222 448.014c0-251.351-203.76-455.111-455.111-455.111s-455.111 203.76-455.111 455.111c0 251.351 203.76 455.111 455.111 455.111s455.111-203.76 455.111-455.111z" />
<glyph unicode="&#xe928;" glyph-name="fa_gears" horiz-adv-x="1069" d="M498.643 461.357c0 39.326-13.913 72.904-41.739 100.73s-61.403 41.739-100.73 41.739c-39.327 0-72.904-13.913-100.73-41.739s-41.739-61.404-41.739-100.73c0-39.326 13.913-72.904 41.739-100.73s61.403-41.739 100.73-41.739c39.327 0 72.904 13.913 100.73 41.739s41.739 61.404 41.739 100.73zM926.052 176.417c0 19.291-7.048 35.987-21.148 50.087s-30.796 21.148-50.087 21.148c-19.291 0-35.987-7.048-50.087-21.148s-21.148-30.796-21.148-50.087c0-19.665 6.959-36.45 20.872-50.363s30.698-20.872 50.363-20.872c19.665 0 36.454 6.959 50.367 20.872s20.867 30.698 20.867 50.363zM926.052 746.296c0 19.293-7.048 35.989-21.148 50.087s-30.796 21.148-50.087 21.148c-19.291 0-35.987-7.049-50.087-21.148s-21.148-30.794-21.148-50.087c0-19.663 6.959-36.452 20.872-50.365s30.698-20.87 50.363-20.87c19.665 0 36.454 6.957 50.367 20.87s20.867 30.702 20.867 50.365zM712.348 512v-102.957c0-3.709-1.3-7.328-3.896-10.85-2.596-3.526-5.565-5.476-8.904-5.846l-86.261-13.357c-4.083-12.987-10.017-27.083-17.809-42.296 12.613-17.809 29.309-39.144 50.087-64 2.596-4.083 3.896-7.791 3.896-11.13 0-4.452-1.3-7.978-3.896-10.574-8.535-11.13-23.837-27.733-45.911-49.806-22.078-22.078-36.641-33.115-43.689-33.115-4.083 0-7.978 1.3-11.687 3.896l-64 50.087c-13.726-7.048-28.013-12.8-42.852-17.252-4.081-40.070-8.348-68.822-12.8-86.261-2.597-8.904-8.162-13.357-16.696-13.357h-103.513c-4.081 0-7.791 1.394-11.13 4.176s-5.194 6.028-5.565 9.737l-12.8 85.148c-12.614 3.709-26.527 9.461-41.739 17.252l-65.67-49.53c-2.597-2.596-6.307-3.896-11.13-3.896-4.081 0-7.977 1.483-11.687 4.452-53.426 49.343-80.139 79.026-80.139 89.043 0 3.339 1.299 6.865 3.896 10.574 3.71 5.196 11.316 15.026 22.817 29.496s20.22 25.787 26.157 33.948c-8.533 16.326-15.026 31.535-19.478 45.635l-84.591 13.357c-3.71 0.37-6.864 2.133-9.461 5.289-2.597 3.152-3.896 6.767-3.896 10.85v102.957c0 3.71 1.299 7.328 3.896 10.852s5.565 5.473 8.904 5.843l86.261 13.357c4.081 12.986 10.017 27.084 17.809 42.296-12.614 17.809-29.31 39.142-50.087 64-2.597 4.081-3.896 7.791-3.896 11.13 0 4.452 1.299 8.163 3.896 11.13 8.162 11.13 23.374 27.641 45.635 49.53s36.916 32.835 43.965 32.835c4.081 0 7.977-1.298 11.687-3.896l64-50.087c12.614 6.678 26.899 12.615 42.852 17.809 4.081 40.070 8.348 68.638 12.8 85.704 2.597 8.904 8.162 13.357 16.696 13.357h103.513c4.081 0 7.791-1.391 11.13-4.174s5.194-6.029 5.565-9.739l12.8-85.148c12.613-3.71 26.526-9.461 41.739-17.252l65.67 49.53c2.97 2.597 6.678 3.896 11.13 3.896 4.083 0 7.978-1.484 11.687-4.452 53.426-49.345 80.139-79.026 80.139-89.043 0-2.968-1.3-6.493-3.896-10.574-4.452-5.936-12.243-15.953-23.374-30.052s-19.478-25.229-25.043-33.391c8.535-17.809 14.839-33.020 18.922-45.635l84.591-12.8c3.709-0.742 6.865-2.69 9.461-5.843s3.896-6.771 3.896-10.852zM1068.522 215.374v-77.913c0-5.935-27.639-11.687-82.922-17.252-4.452-10.017-10.017-19.665-16.696-28.939 18.922-41.926 28.383-67.526 28.383-76.8 0-1.483-0.744-2.783-2.226-3.896-45.265-26.344-68.265-39.513-69.009-39.513-2.97 0-11.5 8.717-25.6 26.157s-23.743 30.052-28.939 37.843c-7.422-0.744-12.987-1.113-16.696-1.113s-9.274 0.37-16.696 1.113c-5.196-7.791-14.839-20.404-28.939-37.843s-22.63-26.157-25.6-26.157c-0.744 0-23.743 13.17-69.009 39.513-1.483 1.113-2.226 2.413-2.226 3.896 0 9.274 9.461 34.874 28.383 76.8-6.678 9.274-12.243 18.922-16.696 28.939-55.283 5.565-82.922 11.317-82.922 17.252v77.913c0 5.935 27.639 11.687 82.922 17.252 4.822 10.761 10.387 20.404 16.696 28.939-18.922 41.926-28.383 67.526-28.383 76.8 0 1.483 0.744 2.783 2.226 3.896 1.483 0.744 7.978 4.452 19.478 11.13s22.448 12.987 32.835 18.922c10.387 5.935 15.952 8.904 16.696 8.904 2.97 0 11.5-8.624 25.6-25.876s23.743-29.776 28.939-37.567c7.422 0.744 12.987 1.113 16.696 1.113s9.274-0.37 16.696-1.113c18.922 26.344 35.987 47.117 51.2 62.33l3.339 1.113c1.483 0 24.487-12.987 69.009-38.957 1.483-1.113 2.226-2.413 2.226-3.896 0-9.274-9.461-34.874-28.383-76.8 6.309-8.535 11.874-18.178 16.696-28.939 55.283-5.565 82.922-11.317 82.922-17.252zM1068.522 785.252v-77.913c0-5.936-27.639-11.687-82.922-17.252-4.452-10.017-10.017-19.663-16.696-28.939 18.922-41.924 28.383-67.524 28.383-76.8 0-1.484-0.744-2.783-2.226-3.896-45.265-26.342-68.265-39.513-69.009-39.513-2.97 0-11.5 8.719-25.6 26.157s-23.743 30.052-28.939 37.843c-7.422-0.742-12.987-1.113-16.696-1.113s-9.274 0.371-16.696 1.113c-5.196-7.791-14.839-20.406-28.939-37.843s-22.63-26.157-25.6-26.157c-0.744 0-23.743 13.171-69.009 39.513-1.483 1.113-2.226 2.412-2.226 3.896 0 9.276 9.461 34.876 28.383 76.8-6.678 9.276-12.243 18.922-16.696 28.939-55.283 5.565-82.922 11.316-82.922 17.252v77.913c0 5.937 27.639 11.687 82.922 17.252 4.822 10.76 10.387 20.406 16.696 28.939-18.922 41.925-28.383 67.525-28.383 76.8 0 1.484 0.744 2.783 2.226 3.896 1.483 0.742 7.978 4.452 19.478 11.131s22.448 12.986 32.835 18.922c10.387 5.936 15.952 8.904 16.696 8.904 2.97 0 11.5-8.626 25.6-25.878s23.743-29.774 28.939-37.565c7.422 0.742 12.987 1.113 16.696 1.113s9.274-0.371 16.696-1.113c18.922 26.342 35.987 47.119 51.2 62.331l3.339 1.113c1.483 0 24.487-12.986 69.009-38.957 1.483-1.113 2.226-2.411 2.226-3.896 0-9.275-9.461-34.875-28.383-76.8 6.309-8.533 11.874-18.18 16.696-28.939 55.283-5.565 82.922-11.316 82.922-17.252z" />
<glyph unicode="&#xe929;" glyph-name="fluent_person-support-16-filled" d="M417.728 269.952l-0.064 0.192c-4.078 1.246-8.132 2.569-12.16 3.968-57.815 20.476-108.545 57.101-146.176 105.536-30.407 39.155-51.301 84.843-61.033 133.453-9.731 48.614-8.035 98.822 4.956 146.667s36.92 92.016 69.902 129.031c32.981 37.015 74.112 65.86 120.147 84.261s95.716 25.853 145.124 21.771c49.408-4.083 97.195-19.59 139.584-45.298s78.225-60.914 104.683-102.841c26.458-41.926 42.812-89.427 47.774-138.755 1.728-17.6-12.8-31.936-30.464-31.936s-31.808 14.4-33.92 31.936c-5.713 45.259-23.415 88.169-51.273 124.291-27.861 36.122-64.866 64.144-107.191 81.165-42.321 17.022-88.422 22.425-133.538 15.651-45.111-6.774-87.593-25.48-123.050-54.181s-62.601-66.356-78.624-109.067c-16.022-42.711-20.34-88.929-12.507-133.87s27.531-86.972 57.058-121.745c29.527-34.773 67.809-61.022 110.885-76.036 10.867 19.819 28.373 35.166 49.446 43.345 21.069 8.175 44.348 8.657 65.737 1.357 21.393-7.3 39.518-21.914 51.196-41.263 11.674-19.354 16.145-42.206 12.629-64.529-3.516-22.327-14.797-42.697-31.855-57.523-17.062-14.827-38.805-23.155-61.402-23.526s-44.604 7.245-62.14 21.504c-17.532 14.255-29.477 34.244-33.724 56.444zM366.976 220.352c-62.651 25.643-117.439 67.341-158.848 120.896-10.539-15.757-16.153-34.291-16.128-53.248v-32c0-126.144 119.040-256 320-256s320 129.856 320 256v32c0 25.459-10.116 49.877-28.117 67.883-18.005 18.001-42.423 28.117-67.883 28.117h-96c13.423-17.929 22.933-38.473 27.917-60.309 4.979-21.833 5.325-44.471 1.007-66.445-4.322-21.973-13.205-42.799-26.078-61.124-12.877-18.325-29.453-33.745-48.661-45.257-19.213-11.516-40.623-18.867-62.852-21.585-22.234-2.714-44.783-0.734-66.202 5.815-21.414 6.549-41.219 17.523-58.127 32.209s-30.545 32.759-40.028 53.047zM704 576c0 58.496-26.176 110.912-67.456 146.112-20.156 17.072-43.618 29.802-68.915 37.393-25.301 7.591-51.891 9.881-78.118 6.725-26.223-3.156-51.516-11.688-74.292-25.064s-42.548-31.308-58.078-52.674c-15.53-21.366-26.484-45.706-32.178-71.499s-6.004-52.483-0.912-78.401c5.092-25.917 15.477-50.506 30.506-72.228s34.378-40.111 56.837-54.012c28.433 23.117 63.962 35.729 100.608 35.712 36.629 0.051 72.158-12.514 100.608-35.584 27.938 17.173 51.008 41.22 67.008 69.85 16 28.625 24.393 60.876 24.384 93.67z" />
<glyph unicode="&#xe92a;" glyph-name="ri_phone-fill" d="M247.992 518.507c4.333 0 9.167-0.666 14.5-1.997 5.333-1.335 10.667-3.17 16-5.5 5.333-2.334 10.667-4.501 16-6.502s10.167-3.998 14.5-5.999l-8-1.003c-2.667-0.333-5.5-0.499-8.5-0.499-5.667 0-10.833 0.836-15.5 2.5-4.667 1.668-9 3.836-13 6.502s-8 4.663-12 5.999c-4 1.331-7.667 2.334-11 2.999-3.334 0-6.333-0.666-9-2.001-2.667-1.331-5.333-2.833-8-4.497 0 1.331-1.167 1.997-3.5 1.997 2.333 2.334 6.667 4.169 13 5.5 6.333 1.335 11.167 2.167 14.5 2.5zM315.492 496.009c13.667 0 26.167-2.334 37.5-7.002-4.667-1.664-9.333-2.999-14-3.998-4.666-1.003-9.5-1.668-14.5-2.001-6.667 0-12.666 0.666-18 2.001 1.667 2.667 3.333 4.331 5 5.001 1.667 0.666 3 2.667 4 5.999zM511.991 960.008c47.002 0 92.169-6.167 135.501-18.5s83.998-29.5 122.001-51.5c37.999-22 72.666-48.833 104-80.5 31.33-31.666 57.997-66.167 80-103.5 21.999-37.333 39.33-78 51.998-122s18.833-89.335 18.5-136c0-47.002-6.165-92.169-18.5-135.501-12.331-43.332-29.5-83.998-51.499-122.001-21.999-37.999-48.832-72.666-80.499-104-31.667-31.33-66.167-57.997-103.501-80-37.333-21.999-77.999-39.33-122.001-51.998-43.998-12.668-89.331-18.833-136-18.5-47.002 0-92.166 6.165-135.5 18.5-43.333 12.331-84 29.5-122 51.499s-72.667 48.832-104 80.499c-31.334 31.667-58 66.167-80 103.501s-39.334 77.999-52 122.001c-12.667 43.998-18.833 89.331-18.5 136 0 47.002 6.167 92.166 18.5 135.5s29.5 84 51.5 122c22 38 48.833 72.667 80.5 104s66.167 58 103.5 80c37.333 22 78 39.334 122 52s89.335 18.833 136 18.5zM892.992 682.508c-4.668 7.334-9.335 14.333-13.999 21-4.668 6.667-9.502 13.5-14.502 20.5-0.666-3-1.498-5.167-2.5-6.5-0.998-1.333-1.664-4.333-1.997-9 0-3 1.165-5.833 3.499-8.5s5.333-5.333 8.998-8c3.669-2.667 7.334-4.667 10.999-6 3.669-1.333 6.835-2.5 9.502-3.5zM858.492 731.508c0-2.667-0.499-4.5-1.498-5.5h2.999c1.331 0 2.33-0.166 2.999-0.5l-4.501 6zM511.991 0.009c37.999 0 75.166 4.834 111.501 14.498 36.335 9.668 70.665 23.334 103.002 41.003 32.333 17.664 62.332 39.33 89.997 64.998 27.669 25.668 51.836 54.332 72.503 85.999-4.335 10.001-8.503 20.169-12.501 30.502-4.002 10.334-5.999 21.001-5.999 32 0 11.998 0.499 21.666 1.498 29.001 1.003 7.33 2.167 13.833 3.499 19.499 1.335 5.666 2.001 10.5 2.001 14.498 0 4.002-0.499 9.169-1.498 15.501-1.003 6.336-3.836 13.167-8.503 20.501-4.663 7.334-10.833 17.668-18.496 31.002 0.333 2.33 0.832 5.5 1.498 9.498 0.666 4.002 1.335 8.166 2.001 12.501 0.666 4.331 0.832 8.333 0.499 11.998-0.333 3.669-1.165 6.835-2.5 9.502-8.666 0.998-17.668 2.833-26.999 5.5-9.335 2.667-17.668 6.665-24.998 11.998l2.999 2.5c-4.335-0.998-8.67-2.334-13.001-3.998-4.335-1.668-8.499-3.499-12.501-5.5-3.998-2.001-8.333-3.332-13.001-4.002-4.663-0.666-9.165-1.331-13.5-1.997l-8 0.998 1.502 3.499c-4.668-1.331-9.668-2.999-15.002-5.001-5.333-1.997-10.5-2.999-15.501-2.999-3.332 0-8.166 1.169-14.498 3.503-6.336 2.33-12.668 5.163-18.999 8.499-6.336 3.332-12.002 6.997-17.003 10.999-5.001 3.998-7.497 7.834-7.497 11.499l0.998 1.502c-1.668 1.997-3.836 3.831-6.502 5.5-2.667 1.664-5.163 3.332-7.497 5.001-2.334 1.664-4.501 3.499-6.502 5.5-2.001 1.997-2.833 4.331-2.5 6.997l5.5 4.501-11.499 1.502-3.998 14.997c0.666-1.664 2.163-2.334 4.497-2.001 2.334 0.337 4.169 1.003 5.5 2.001l-17.997 9.502 12.497 31.999c-4.668 17.333-5.833 30.667-3.499 40s6.831 17 13.5 23c6.665 6 13.999 12 21.999 18s16.166 14.167 24.499 24.5l-1.498 6 32.998 40 7.501 1c9.335 0 19.831 0.334 31.501 1 11.665 0.667 23.501 1.833 35.499 3.5 12.002 1.667 23.834 3.334 35.503 5 11.665 1.667 22.332 3.833 32 6.5-10.671 12.667-21.837 24.667-33.502 36s-24.166 22.167-37.5 32.5c-3.669-1.333-8.166-3.167-13.5-5.5s-10.667-5.333-16-9c-5.333-3.667-9.502-7.667-12.501-12s-4.834-8.833-5.5-13.5l2.999-9.5c-5.999-9.667-12.668-15.667-19.998-18-7.334-2.333-14.835-3.667-22.502-4s-15.667-0.333-24 0c-8.333 0.333-16.333-1.167-24-4.5l-8 17 7.501 29-8.499 12.5 86.498 27c-3.665 9.333-9.664 16.333-17.997 21-8.337 4.666-17.502 7-27.503 7v5l28.002 4.5c-31.002 15.333-63.168 27-96.499 35-33.335 8-67.503 12-102.502 12-29.001 0-57.668-2.833-85.999-8.5-28.334-5.667-55.667-13.833-82-24.5s-51.833-24-76.5-40c-24.666-16-47.167-34-67.5-54 8.667 0 15.334-2.167 20-6.5s9-9.167 13-14.5c4-5.333 8.167-10.167 12.5-14.5s10.167-6.667 17.5-7l8 6-1 11 16.5 23.5-13 37c1.667 1 4.166 2.667 7.5 5s6.167 3.5 8.5 3.5c10 0 17.667-0.5 23-1.5s10-2.833 14-5.5c4-2.667 7.5-6.5 10.5-11.5s7.667-11.333 14-19l18 14c3.333-1.333 8.666-3.5 16-6.5s14.833-6.667 22.5-11c7.667-4.333 14.167-8.833 19.499-13.5s8.166-9 8.499-13c0-5-1.83-9-5.5-12-3.665-3-8.498-5.5-14.499-7.5s-12.166-3.5-18.5-4.5c-6.333-1-12.667-2.333-19-4s-11.167-3.334-14.5-5c-3.333-1.667-5.333-4.5-6-8.5l29-9.5c-6.667-5.667-13.833-10.833-21.5-15.5s-15.667-9-24-13l2-8.5-46-18v-14l-3.5-1.5 2.5 17.5-2 0.5c-2.333 0-3.667-0.5-4-1.5s-0.5-2.167-0.5-3.5c0-1.333 0.333-2.667 1-4s0.833-2.333 0.5-3l-6.5 3.5 1-2c0-1 0.5-2.5 1.5-4.5s2.333-3.833 4-5.5c1.667-1.667 3-3.334 4-5s1.667-2.5 2-2.5c0-1-0.667-2-2-3s-3-1.667-5-2c-2-0.334-3.334-0.833-4-1.5s-0.667-0.833 0-0.5c4.666 0 5.667-0.333 3-1s-6.833-2.333-12.5-5c-5.667-2.667-10.833-6.5-15.5-11.5s-7.334-12.334-8-22c0-5.667 0.167-11.167 0.5-16.5s0.166-10.833-0.5-16.5c-4.667 12.667-11.667 22.333-21 29s-20.666 10-34 10l-21.5-2 10.5-7c-5.667 0.666-11.5 1.333-17.5 2s-12.167 0.833-18.5 0.5c-6.333-0.333-12-1.667-17-4s-10-5.833-15-10.5l-3-22.502c0-10.667 2.333-19.332 7-25.997 4.667-6.669 12.834-10.167 24.5-10.5 10 0 19.834 1.498 29.5 4.497 9.667 3.004 19.167 6.502 28.5 10.5-3-7.33-6.333-14.332-10-20.996-3.666-6.669-6.333-14.003-8-22.003l6.5-2.999c8 5.333 15.333 6.165 22 2.5s13.167-8.998 19.5-16c6.333-7.002 12.833-14.165 19.5-21.5s13.833-12.668 21.5-16l-17-8.998-40 22.498c0.334-0.666 0.667-2.167 1-4.501 0.333-2.33 0.167-2.833-0.5-1.498l-18 30.498c-10.667 0.333-22 2.001-34 5.001s-24.166 7.002-36.5 12.002c-12.333 5.001-23.833 10.5-34.5 16.499s-20.5 12.331-29.5 18.999l-3.5-53.5c0-40.666 5.5-80.333 16.5-119.002 11-38.665 26.5-74.999 46.5-109.001 20-33.997 44.5-64.998 73.5-93.001 29-27.998 61.167-51.831 96.5-71.497-1.667 6.997-1.833 13.999-0.5 21.001 1.333 6.997 3 13.999 5 20.996 2 7.002 4.166 14.003 6.5 21.001 2.333 7.002 3.5 14.17 3.5 21.5 0 10.667-1.667 21.837-5 33.502s-7.334 23.501-12 35.499c-4.667 12.002-9.833 23.834-15.5 35.503-5.667 11.665-10.167 22.665-13.5 32.998s-6 19.998-8 29.001c-2 8.998-1 16.832 3 23.501l-7.5 3.499c2 4.668 4.666 9.165 8 13.5s6.833 8.666 10.5 13.001c3.667 4.335 6.5 8.998 8.5 13.999s3.167 10.001 3.5 15.002c0 3.332-0.666 6.831-2 10.5-1.333 3.665-2.5 7.164-3.5 10.5l10.5-2.5c5.667 13.001 13.333 21.833 23 26.5 9.667 4.663 21.833 7.164 36.5 7.497 1.667 0 5.167-0.666 10.5-1.997 5.333-1.335 11-3.166 17-5.5s11.667-4.169 17-5.5c5.333-1.335 9.333-2.667 12-4.002 0-2.334 1.333-3.831 4-4.501 2.667-0.666 4.167-1.83 4.5-3.499l-1-3.998c1-0.337 3.334-1.502 7-3.503 3.667-1.997 7.667-4.497 12.001-7.501 4.331-2.999 8.166-5.666 11.499-8 3.332-2.33 5.666-4.164 7.002-5.5 5.999 0 14.165-1.997 24.499-5.999 10.334-3.998 21.666-8.998 34.001-14.997 12.331-6.003 24.499-13.167 36.497-21.504 12.002-8.333 23.334-16.666 34.001-24.998s18.833-16.666 24.499-24.998c5.666-8.333 9.003-15.667 10.001-22.003l-16.998-17.997c1.331-17.003 0.166-30.003-3.503-39.002-3.665-8.998-9.331-16.499-16.998-22.498-7.667-6.003-16.499-11.004-26.5-15.002-10.001-4.002-20.834-9.668-32.499-16.998 0-6.669-1.668-13.837-5.001-21.5-3.332-7.667-7.501-15.002-12.501-22.003-5.001-6.997-10.999-12.834-18.001-17.498-6.997-4.668-13.999-7.002-20.996-7.002l-21.001 16c0.666-0.666 0.666-1.835 0-3.499-0.67-1.668-1.502-2.001-2.5-1.003 3.332-6.332 4.164-13.666 2.5-21.999-1.668-8.333-4.501-16.832-8.499-25.498-4.002-8.67-8.502-16.836-13.502-24.503-5-7.663-9.5-14.165-13.5-19.499 18-4.668 36-8.166 54.001-10.5 17.997-2.334 36.164-3.499 54.498-3.499z" />
<glyph unicode="&#xe92b;" glyph-name="heroicons_shield-exclamation-solid" d="M489.984 867.413c5.943 5.636 13.824 8.777 22.016 8.777s16.073-3.142 22.016-8.777c90.569-86.011 211.196-133.177 336.085-131.413 6.805 0.088 13.457-1.994 18.999-5.946 5.538-3.951 9.673-9.566 11.806-16.028 18.005-54.877 27.153-112.272 27.093-170.027 0-253.525-173.397-466.474-408.021-526.848-5.235-1.348-10.722-1.348-15.957 0-234.624 60.373-408.021 273.323-408.021 526.848 0 59.307 9.515 116.48 27.093 170.027 2.124 6.47 6.257 12.093 11.797 16.053s12.199 6.048 19.008 5.963l6.101-0.043c127.829 0 243.968 49.92 329.984 131.413zM512 608c8.486 0 16.627-3.372 22.626-9.373 6.003-6.001 9.374-14.141 9.374-22.627v-160c0-8.486-3.371-16.627-9.374-22.626-5.999-6.003-14.14-9.374-22.626-9.374s-16.627 3.371-22.626 9.374c-6.003 5.999-9.374 14.14-9.374 22.626v160c0 8.487 3.371 16.626 9.374 22.627 5.999 6.001 14.14 9.373 22.626 9.373zM512 320c-8.486 0-16.627-3.371-22.626-9.374-6.003-5.999-9.374-14.14-9.374-22.626v-0.341c0-17.664 14.336-32 32-32h0.341c8.486 0 16.627 3.371 22.626 9.374 6.003 5.999 9.374 14.14 9.374 22.626v0.341c0 8.486-3.371 16.627-9.374 22.626-5.999 6.003-14.14 9.374-22.626 9.374h-0.341z" />
<glyph unicode="&#xe92c;" glyph-name="arrow-left" d="M598.175 727.584c5.905 7.179 18.887 5.743 23.609 0s5.899-21.536 0-28.715l-182.939-222.541 182.939-222.546c1.963-4.784 5.899-21.532 0-28.712-7.464-9.085-19.672-2.395-23.609-0.006l-194.74 236.906c-9.442 11.486-3.934 23.93 0 28.716l194.74 236.898z" />
<glyph unicode="&#xe92d;" glyph-name="download" d="M844.8 140.8h-665.6c-6.79 0-13.301-2.698-18.102-7.496-4.801-4.803-7.498-11.315-7.498-18.104s2.697-13.302 7.498-18.104c4.801-4.797 11.312-7.496 18.102-7.496h665.6c6.789 0 13.302 2.698 18.104 7.496 4.797 4.803 7.496 11.315 7.496 18.104s-2.698 13.302-7.496 18.104c-4.803 4.797-11.315 7.496-18.104 7.496zM513.398 192l299.023 277.159c4.618 4.998 7.030 11.426 6.758 18-0.276 6.575-3.215 12.811-8.233 17.463-5.023 4.652-11.75 7.377-18.842 7.631-7.096 0.254-14.029-1.982-19.42-6.262l-231.107-213.942v539.428c0 6.928-2.97 13.572-8.253 18.471s-12.452 7.651-19.927 7.651c-7.476 0-14.645-2.752-19.93-7.651s-8.255-11.543-8.255-18.471v-539.428l-230.822 213.942c-2.527 2.735-5.636 4.956-9.133 6.523s-7.305 2.449-11.187 2.588c-3.881 0.139-7.752-0.467-11.368-1.78s-6.901-3.305-9.648-5.851c-2.747-2.546-4.896-5.591-6.313-8.943s-2.071-6.94-1.921-10.537c0.15-3.598 1.101-7.128 2.792-10.369s4.088-6.123 7.038-8.465l298.746-277.159z" />
<glyph unicode="&#xe92e;" glyph-name="Vector1" d="M1020.844 911.532c-1.678-3.653-3.988-6.981-6.827-9.83l-645.393-645.255 182.272-303.855c3.23-5.406 7.89-9.812 13.467-12.732s11.852-4.24 18.133-3.818c6.283 0.425 12.322 2.576 17.458 6.22 5.133 3.644 9.158 8.636 11.632 14.425l409.259 954.845zM320.428 304.643l-303.854 182.409c-5.404 3.227-9.81 7.887-12.73 13.464s-4.242 11.852-3.818 18.135c0.424 6.281 2.576 12.322 6.22 17.455s8.635 9.158 14.424 11.634l955.050 409.189c-3.705-1.685-7.081-4.020-9.967-6.895l-645.325-645.392z" />
<glyph unicode="&#xe939;" glyph-name="calendar" d="M725.333 362.667c11.315 0 22.17 4.494 30.168 12.498 8.004 7.999 12.498 18.852 12.498 30.168s-4.494 22.168-12.498 30.17c-7.999 8.001-18.853 12.497-30.168 12.497s-22.17-4.495-30.168-12.497c-8.004-8.001-12.498-18.854-12.498-30.17s4.494-22.17 12.498-30.168c7.999-8.004 18.853-12.498 30.168-12.498zM725.333 192c11.315 0 22.17 4.494 30.168 12.498 8.004 7.999 12.498 18.853 12.498 30.168s-4.494 22.17-12.498 30.168c-7.999 8.004-18.853 12.498-30.168 12.498s-22.17-4.494-30.168-12.498c-8.004-7.999-12.498-18.853-12.498-30.168s4.494-22.17 12.498-30.168c7.999-8.004 18.853-12.498 30.168-12.498zM554.667 405.333c0-11.316-4.495-22.17-12.497-30.168-8.001-8.004-18.854-12.498-30.17-12.498s-22.168 4.494-30.17 12.498c-8.001 7.999-12.497 18.852-12.497 30.168s4.495 22.168 12.497 30.17c8.001 8.001 18.854 12.497 30.17 12.497s22.168-4.495 30.17-12.497c8.001-8.001 12.497-18.854 12.497-30.17zM554.667 234.667c0-11.315-4.495-22.17-12.497-30.168-8.001-8.004-18.854-12.498-30.17-12.498s-22.168 4.494-30.17 12.498c-8.001 7.999-12.497 18.853-12.497 30.168s4.495 22.17 12.497 30.168c8.001 8.004 18.854 12.498 30.17 12.498s22.168-4.494 30.17-12.498c8.001-7.999 12.497-18.853 12.497-30.168zM298.667 362.667c11.316 0 22.168 4.494 30.17 12.498 8.001 7.999 12.497 18.852 12.497 30.168s-4.495 22.168-12.497 30.17c-8.001 8.001-18.854 12.497-30.17 12.497s-22.168-4.495-30.17-12.497c-8.001-8.001-12.497-18.854-12.497-30.17s4.495-22.17 12.497-30.168c8.001-8.004 18.854-12.498 30.17-12.498zM298.667 192c11.316 0 22.168 4.494 30.17 12.498 8.001 7.999 12.497 18.853 12.497 30.168s-4.495 22.17-12.497 30.168c-8.001 8.004-18.854 12.498-30.17 12.498s-22.168-4.494-30.17-12.498c-8.001-7.999-12.497-18.853-12.497-30.168s4.495-22.17 12.497-30.168c8.001-8.004 18.854-12.498 30.17-12.498zM298.68 885.333c-8.48-0.011-16.608-3.388-22.6-9.388s-9.357-14.133-9.357-22.612v-35.285c-11.051-0.853-21.589-1.92-31.531-3.243-50.005-6.741-90.496-20.907-122.453-52.821-31.915-31.957-46.080-72.448-52.821-122.453-6.528-48.597-6.528-110.72-6.528-189.141v-90.112c0-78.421 0-140.504 6.528-189.144 6.741-50.005 20.907-90.493 52.821-122.448 31.957-31.915 72.448-46.086 122.453-52.827 48.597-6.525 110.72-6.525 189.141-6.525h175.401c78.421 0 140.504 0 189.144 6.525 50.005 6.741 90.493 20.912 122.453 52.827 31.915 31.954 46.080 72.442 52.821 122.448 6.525 48.6 6.525 110.723 6.525 189.144v90.112c0 78.421 0 140.501-6.525 189.141-6.741 50.005-20.907 90.496-52.821 122.453-31.96 31.915-72.448 46.080-122.453 52.821-9.944 1.323-20.44 2.389-31.534 3.243v35.285c0 8.487-3.368 16.626-9.37 22.628s-14.143 9.372-22.63 9.372c-8.488 0-16.623-3.371-22.625-9.372s-9.375-14.141-9.375-22.628v-32.555c-28.245 0.555-59.346 0.555-93.611 0.555h-175.486c-34.219 0-65.323 0-93.568-0.555v32.555c0 8.487-3.372 16.626-9.373 22.628s-14.14 9.372-22.627 9.372zM243.64 751.36c43.904 5.888 101.675 5.973 183.040 5.973h170.665c81.368 0 139.179-0.085 183-5.973 42.923-5.76 67.669-16.597 85.714-34.645 18.051-18.048 28.888-42.795 34.645-85.675 0.984-7.296 1.792-14.933 2.475-23.040h-782.334c0.683 8.064 1.493 15.744 2.475 22.997 5.76 42.923 16.597 67.669 34.645 85.717s42.795 28.885 85.675 34.645zM117.346 448c0 36.437 0 68.139 0.555 96h788.225c0.552-27.861 0.552-59.563 0.552-96v-85.333c0-81.368-0.085-139.179-5.973-183.040-5.757-42.883-16.594-67.624-34.645-85.675-18.045-18.051-42.792-28.888-85.714-34.645-43.822-5.888-101.632-5.973-183-5.973h-170.665c-81.365 0-139.136 0.085-183.040 5.973-42.88 5.757-67.627 16.594-85.675 34.645s-28.885 42.798-34.645 85.72c-5.888 43.816-5.973 101.626-5.973 182.994v85.333z" />
<glyph unicode="&#xe93a;" glyph-name="arrow-side" d="M434.44 196.372c-5.311-6.461-16.995-5.166-21.244 0-4.249 5.171-5.311 19.384 0 25.846l164.642 200.284-164.642 200.292c-1.77 4.307-5.311 19.381 0 25.844 6.717 8.174 17.704 2.156 21.244 0.002l175.27-213.216c8.494-10.337 3.538-21.535 0-25.841l-175.27-213.212z" />
<glyph unicode="&#xe93b;" glyph-name="arrow-down" d="M232.416 534.178c-7.179 5.901-5.743 18.884 0 23.605s21.536 5.901 28.715 0l222.541-182.936 222.546 182.936c4.784 1.967 21.532 5.901 28.712 0 9.085-7.463 2.395-19.671 0.006-23.605l-236.906-194.744c-11.486-9.438-23.93-3.931-28.716 0l-236.898 194.744z" />
<glyph unicode="&#xe93c;" glyph-name="cross" horiz-adv-x="967" d="M927.289 425.244v56.889l-415.289-5.689-5.689 415.289h-56.889l5.689-415.289-415.289-5.689v-56.889l415.289 5.689 5.689-415.289h56.889l-5.689 415.289z" />
<glyph unicode="&#xe93e;" glyph-name="time" d="M127.667 466.091c0 69.632 17.408 134.144 51.883 193.195s81.237 105.813 140.288 140.288c59.051 34.475 123.222 51.541 192.512 51.541 51.883 0 101.717-10.24 149.163-30.379s88.064-47.787 122.539-81.92c34.475-34.133 61.781-75.093 81.92-122.88s30.379-97.28 30.379-149.845c0-51.883-10.24-101.717-30.379-149.163s-47.787-88.405-81.92-122.539c-34.133-34.133-75.093-61.44-122.539-81.579s-96.939-30.379-149.163-30.379c-52.224 0-102.4 10.24-149.846 30.379s-88.405 47.787-122.88 81.92c-34.475 34.133-61.44 75.093-81.92 122.197s-30.037 96.939-30.037 149.163zM212.317 466.091c0-80.896 29.355-151.211 88.405-210.944 59.051-59.051 129.366-88.405 211.627-88.405 53.931 0 104.107 13.312 149.845 40.277s82.603 63.147 109.568 109.227c26.965 46.080 40.619 95.915 40.619 149.845s-13.653 104.107-40.619 150.187c-26.965 46.080-63.488 82.603-109.568 109.568s-95.915 40.277-149.845 40.277c-53.931 0-104.107-13.312-149.846-40.277s-82.603-63.488-109.909-109.568c-27.307-46.080-40.277-96.256-40.277-150.187zM405.853 321.365c-1.077 3.691-1.391 7.561-0.922 11.375s1.712 7.492 3.652 10.812l74.070 131.072v218.795c0 7.851 2.731 14.677 8.192 20.139s12.288 8.192 20.139 8.192c7.851 0 14.677-2.731 20.139-8.192s8.192-12.288 8.192-20.139v-227.669c0-6.827-2.048-12.629-6.485-18.091l-74.411-133.12c-5.461-9.216-13.995-13.995-25.6-13.995-5.461 0-9.899 1.024-13.654 3.072-6.353 4.203-11.056 10.475-13.312 17.749z" />
<glyph unicode="&#xe93f;" glyph-name="person" d="M192 64c0 0-64 0-64 64s64 256 384 256c320 0 384-192 384-256s-64-64-64-64h-640zM512 448c50.923 0 99.759 20.228 135.765 56.235s56.235 84.844 56.235 135.765-20.228 99.758-56.235 135.764c-36.006 36.007-84.843 56.236-135.765 56.236s-99.758-20.229-135.764-56.236c-36.007-36.007-56.236-84.843-56.236-135.764s20.229-99.758 56.236-135.765c36.007-36.006 84.842-56.235 135.764-56.235z" />
</font>
</defs>
</svg>
